<?xml version="1.0" encoding="UTF-8"?>
<svg width="12px" height="15px" viewBox="0 0 12 15" version="1.1" xmlns="http://www.w3.org/2000/svg" xmlns:xlink="http://www.w3.org/1999/xlink">
    <title>£</title>
    <g id="V2" stroke="none" stroke-width="1" fill="none" fill-rule="evenodd">
        <g id="1---Donation-page-monthly" transform="translate(-745.000000, -382.000000)" fill="#1F2526" fill-rule="nonzero">
            <g id="Group-4" transform="translate(209.000000, 236.000000)">
                <path d="M547.035156,161 L547.035156,158.460938 L540.023438,158.460938 C541.00651,157.953125 541.498047,157.145833 541.498047,156.039063 L541.498047,156.039063 L541.498047,154.642578 L545.160156,154.642578 L545.160156,152.503906 L541.498047,152.503906 L541.498047,150.619141 C541.498047,150.078776 541.634766,149.663737 541.908203,149.374023 C542.181641,149.08431 542.572266,148.939453 543.080078,148.939453 C543.828776,148.939453 544.714193,149.147786 545.736328,149.564453 L545.736328,149.564453 L546.644531,147.318359 C545.375,146.784505 544.105469,146.517578 542.835938,146.517578 C541.47526,146.517578 540.422201,146.870768 539.676758,147.577148 C538.931315,148.283529 538.558594,149.291016 538.558594,150.599609 L538.558594,150.599609 L538.558594,152.503906 L536.820312,152.503906 L536.820312,154.642578 L538.558594,154.642578 L538.558594,156.058594 C538.558594,156.709635 538.433268,157.220703 538.182617,157.591797 C537.931966,157.962891 537.471354,158.291667 536.800781,158.578125 L536.800781,158.578125 L536.800781,161 L547.035156,161 Z" id="£"></path>
            </g>
        </g>
    </g>
</svg>